<?xml version="1.0" encoding="utf-8"?>
<!-- Generator: Adobe Illustrator 27.9.4, SVG Export Plug-In . SVG Version: 9.03 Build 54784)  -->
<svg version="1.1" id="Capa_1" xmlns="http://www.w3.org/2000/svg" xmlns:xlink="http://www.w3.org/1999/xlink" x="0px" y="0px"
	 viewBox="0 0 1920 623" style="enable-background:new 0 0 1920 623;" xml:space="preserve">
<style type="text/css">
	.st0{fill:#00FFCE;}
	.st1{fill:#030504;}
	.st2{fill:#03FDD4;}
	.st3{fill:#03A69A;}
	.st4{fill:#04A69B;}
	.st5{fill:#06A79B;}
	.st6{fill:#05A398;}
	.st7{fill:#05A59A;}
	.st8{fill:#06A297;}
	.st9{fill:#118E7C;}
	.st10{fill:#177F73;}
	.st11{fill:#23C8AB;}
	.st12{fill:#25FAD5;}
	.st13{fill:#010403;}
</style>
<g>
	<path d="M598.9,106.4h97.8v179.2h68.3V106.4h98.3v442.4h-98.3V355.5h-68.3v193.4h-97.8V106.4z"/>
	<path d="M992.7,106.4h111.4l82.5,442.4h-90.1l-14.7-93.4h-65l-15.3,93.4h-92.3L992.7,106.4z M1072.4,397L1049,224.4L1025.5,397
		H1072.4z"/>
	<path d="M1217.2,415l83.6-12.6c1.1,57.4,14.2,78.7,38.8,78.7c20.2,0,24.6-16.9,24.6-32.2c0-36.6-18.6-58.4-48.6-84.1l-38.2-33.3
		c-33.9-28.4-59.5-61.7-59.5-115.3c0-74.8,47.5-115.8,124-115.8c94.5,0,108.2,73.7,109.8,125.6l-84.1,10.4
		c-1.1-39.3-3.8-64.5-28.9-64.5c-18,0-26.2,19.1-26.2,34.4c0,32.8,16.9,50.3,42.6,72.6l36.6,32.2c38.2,32.8,68.8,71.6,68.8,132.7
		c0,62.8-45.3,111.4-115.8,111.4C1260.9,555.4,1220.5,513.4,1217.2,415z"/>
	<path d="M1509.4,106.4h97.8v179.2h68.3V106.4h98.3v442.4h-98.3V355.5h-68.3v193.4h-97.8V106.4z"/>
</g>
<rect x="1474.9" y="411.7" class="st0" width="426.1" height="67.4"/>
<g id="hCf2Y8.tif_00000020362247753705137230000012111904422279709071_">
	<g>
		<path class="st1" d="M223.8,51.7c8.6,0.9,15.7,4.9,22.7,9.8c12.4,8.8,24.9,17.4,37.7,25.6c10.4,6.7,13.8,16.9,12.2,28.9
			c-0.8,5.8-1.5,11.6-2.4,17.3c-0.3,2-0.2,3,2.4,3.1c6.1,0.1,6.1,0.3,7-5.8c2.4-17.3,4.7-34.6,7.1-52c2.2-16.5,8.2-23.2,24.3-26.9
			c26.5,0,52.9,0,79.4,0c7.5,1,13.8,4.6,19.9,8.9c10.7,7.5,21.3,15.2,32.6,21.8c4.2,2.4,7.8,5.6,11.3,9c6.8,6.7,8.6,14.7,7.3,23.8
			c-1.6,11-3,22-4.6,32.9c-0.4,2.5,0.2,3.8,2.3,5.2c9.6,6.1,18.9,12.7,28.5,18.7c8,4.9,12.2,12.2,12.5,21c0.9,27.1,1.4,54.3,0,81.4
			c-0.7,13.9-9.1,21.7-22.8,23.1c-12.6,1.3-25.3,0.4-37.9,0.5c-2.9,0-4.2,0.5-4.5,3.8c-0.8,7.8-2,15.5-3.3,23.2
			c-0.3,2,0.2,3.1,1.8,4.2c10.9,7.7,21.7,15.6,32.7,23.1c7.9,5.4,10.3,13.1,11.3,21.9c0,25.9,0,51.8,0,77.7c-0.6,3.6-1,7.3-2.5,10.8
			c-4.5,10.6-13.3,14.4-23.9,14.7c-12.4,0.4-24.8,0.4-37.1,0c-3.9-0.1-4.6,1.5-5.1,4.7c-2.8,20-5.3,40-8.6,59.9
			c-2.6,15.7-11.4,23.2-27.2,23.3c-26.2,0.2-52.3,0-78.5,0.1c-4.1,0-6.9-2.6-9.8-4.6c-13.9-9.4-27.7-18.9-41.5-28.4
			c-0.9-0.6-1.8-1.4-2.8-1.9c-12.2-5.3-16.1-16.8-13.8-30.3c1-6.3,1.9-12.6,2.7-19c0.2-1.3,1.6-4-1.5-3.5c-2.4,0.4-6.4-2.6-7.1,2.5
			c-1.3,9-2.5,18-3.8,27c-1.7,11.5-3,23.1-5.1,34.6c-2.9,16.2-11.6,23.5-27.9,23.5c-26.5,0.1-52.9,0-79.4,0c-1.9,0-3.7-0.1-5.2-1.4
			c-7.6-6.3-15.9-11.4-24-17c-9.2-6.4-18.3-13-27.8-18.9c-8-5-10.9-13.1-10-22.1c1.2-12,3.1-24,4.7-35.9c0.9-6.8,1.7-13.5,3-20.3
			c0.7-3.8-0.5-4.5-4.1-4.4c-6.1,0.2-12.2,0.1-18.3-0.3c-14.1-1.1-21.8-8.7-23.8-22.8c-0.1-0.5-0.3-1.1-0.5-1.6
			c0-26.8,0-53.5,0-80.3c0.1-0.3,0.3-0.5,0.4-0.8c2.8-15.9,11.6-23.4,27.8-23.6c11.4-0.1,22.8-0.1,34.1,0c2.8,0,3.9-0.7,4.2-3.6
			c1.2-10.3,2.7-20.6,4.4-30.8c0.8-4.7-0.8-9.3-0.5-14c0.1-2.3-1.8-1.7-3.1-1.7c-5.7-0.1-11.4,0.1-17.1-0.1
			c-17-0.7-26.4-9.7-26.6-26.8c-0.4-25.2-0.4-50.3,0-75.5c0.2-16.9,9.7-26.2,26.7-26.8c12.6-0.4,25.3-0.3,38-0.2
			c2.9,0,3.8-0.9,4.1-3.7c2.3-17.8,4.9-35.5,7.3-53.2c2.3-17.5,8.4-24.3,25.3-27.7C172.5,51.8,198.2,51.7,223.8,51.7z M328.8,67.5
			c-0.3,0.3-0.6,0.5-0.9,0.8l0.1,0.2l-0.2-0.1c-0.3,0.3-0.5,0.6-0.8,0.9c-0.2,0.4-0.5,0.7-0.7,1.1c-2,2.9-2.6,6.3-3,9.7
			c-3,21.2-5.9,42.5-8.8,63.8c-0.9,6.3,0.1,5.7-6.7,5.7c-24.7,0-49.5-0.1-74.2,0.1c-4.3,0-4.8-1.4-4.2-5.1
			c2.9-20.1,5.7-40.2,8.4-60.4c1.7-12.7-3.2-18.9-16-19c-24.3-0.3-48.6-0.2-72.9,0c-8.4,0.1-11.6,3.1-13.5,11.4
			c-0.4,1.5-0.6,3.1-0.9,4.6c-2.9,21.4-5.9,42.8-8.7,64.2c-0.4,3.4-1.7,4.3-5.1,4.3c-15.5-0.2-31-0.1-46.5,0
			c-4.5,0-9.1,0.2-12.4,4.2c-1.9,1.6-2.6,3.7-2.7,6.1l0.1-0.1c-1.2,1.8-0.9,3.8-0.9,5.8c0,23.6,0,47.1,0,70.7c0,2.2-0.3,4.6,0.9,6.7
			c-0.2,0.2-0.1,0.5,0.1,0.6c0,1.6,0.5,3.1,1.7,4.3c0,0,0,0,0,0c0.3,0.3,0.5,0.7,0.8,1c3.3,4,8,3.9,12.5,4c10.5,0.2,21,0.2,31.6,0
			c3.1-0.1,4.2,0.5,3.7,4c-3.5,23.1-6.8,46.1-10,69.2c-0.3,2.4-1.2,3-3.5,3c-8.2-0.1-16.5-0.2-24.7,0c-8.4,0.2-16.8-0.6-25.1,0.5
			c-6.9,1-9.9,4.2-10.8,11.1c-0.2,1.8-0.3,3.7-0.3,5.5c0,22.9,0,45.8,0,68.7c0,2.3,0.1,4.6,0.4,6.8c1,6.3,3.9,9.3,10.2,10.3
			c2.2,0.4,4.5,0.2,6.8,0.2c10.5,0.1,21,0.2,31.5,0.3c-3.2,23.4-6.4,46.8-9.7,70.1c-1.7,11.7,2.9,17.4,14.7,17.4
			c23.9,0.1,47.8,0.1,71.7,0c9.3,0,12.8-3.1,14.7-12.1c0.3-1.4,0.6-2.8,0.8-4.2c3.2-22.7,6.4-45.3,9.5-68c0.4-2.7,1.2-3.5,4-3.5
			c26.6,0.1,53.2,0.1,79.8,0c2.5,0,3.6,0.4,3.1,3.3c-1.4,8.3-2.4,16.6-3.6,24.9c-2.1,14.5-4.2,29-6.1,43.5c-1,7.7,0.8,11.5,6.8,14.5
			c2.6,1.3,5.5,1.6,8.3,1.6c24,0,48.1,0.1,72.1,0c8.5,0,12-3.2,14-11.5c0.4-1.5,0.6-3.1,0.9-4.6c3.2-22.7,6.4-45.3,9.4-68
			c0.4-3.3,1.7-3.8,4.6-3.8c15.2,0.1,30.4,0.1,45.7,0c12.4-0.1,16.4-4,16.5-16.4c0-0.4,0-0.9,0-1.3c0-22.5,0-44.9,0-67.4
			c0-2.4-0.1-4.8-0.5-7.2c-1.1-7-3.8-9.6-10.7-10.7c-2-0.3-4-0.3-6-0.3c-9.8,0-19.6-0.1-29.4,0.1c-3.4,0.1-4.6-0.3-4-4.3
			c3.5-22.6,6.7-45.3,9.8-68c0.4-3.3,1.7-4,4.9-4c11.8,0.2,23.6,0.1,35.4,0.1c4.5,0,9.1,0.2,13.6-0.6c5.7-1,8.3-3.5,9.2-8.9
			c1-1.1,0.8-2.5,0.8-3.9c0.1-1.1,0.4-2.2,0.4-3.3c0-23,0-46,0-69c0-1-0.2-1.9-0.4-2.9c0.1-0.3,0.1-0.5,0-0.7c0.2-2.5,0-4.9-1.3-7.1
			l0-0.1c-0.3-0.5-0.6-1.1-0.8-1.6l-0.1-0.1c-0.1-0.7-0.4-1.3-1.1-1.4l0,0c-0.3-0.3-0.6-0.6-1-0.8c0-0.2-0.2-0.3-0.3-0.3
			c-0.4-0.2-0.9-0.5-1.3-0.7l-0.3-0.2c-0.6-0.6-1.3-0.8-2.1-0.7l0,0c-2.9-1.2-5.9-1.6-9-0.9c-0.4,0-0.9,0-1.3,0
			c-7.4-0.6-14.9-0.6-22.3,0c-1.3,0-2.6,0-3.9,0c-1-0.2-2-0.3-3-0.5l-0.1-0.1c1.1-7.9,2.3-15.7,3.3-23.6c1.5-12.1,3.8-24.1,4.7-36.2
			c0.1-0.2,0.2-0.4,0.1-0.6c1-4.6,2.3-9.2,1.1-14.1c0.1-0.3,0-0.5-0.2-0.7c0.1-1,0-2-0.9-2.7l0,0c0-0.8-0.3-1.3-1-1.6l0,0
			c-0.1-0.7-0.6-1.1-1.3-1.2l-0.1-0.1c-3.9-3.6-8.8-3.6-13.6-3.6c-20.9-0.1-41.8-0.1-62.6,0c-4.3,0-8.8-0.6-13,1.3l0,0
			c-0.8-0.1-1.5,0.1-2.1,0.8c-0.2,0-0.3,0-0.4,0.2C329.6,67,329.2,67.2,328.8,67.5z M438.2,317.7c1.4,0.7,2.7,1.4,4.5,2.4
			c1.1-7.4,1.9-14.4,3.3-21.3c0.7-3.9-0.3-6.2-4-7.5c-9.3-6.8-18.6-13.5-27.8-20.3c-2.8-2.1-2.9-0.2-3.1,1.9
			c-1.7,12.4-3.5,24.7-5.2,37.1c-0.8,6-0.8,5.9,5.3,6C420.1,316.1,429.3,315,438.2,317.7z M281.3,102.6c-0.8-2-2.6-2.9-4.2-4.1
			c-7.3-5-14.7-9.7-21.7-15c-3.1-2.3-4.1-1.9-4.6,1.8c-2.1,16-4.3,32.1-6.6,48.1c-0.3,2.4,0.4,3,2.6,2.9c10.1-0.1,20.2-0.1,30.2-0.2
			c2.5,0.9,3.5,0,3.8-2.6c0.8-7,2-14,2.8-20.9C284.1,109,283.6,105.5,281.3,102.6z M468.4,100.9c-7.8-6.8-16.8-12-25.3-17.9
			c-3.7-2.6-4.8-1.9-5.5,2.8c-2.1,15.6-4.1,31.2-6.4,46.7c-0.5,3.3,0.5,3.8,3.4,3.7c9.6-0.1,19.3-0.7,28.6,2.5c1.5,1,3.1,2.1,5,3.4
			c1.4-10.7,2.9-20.6,4.1-30.6C472.9,107.3,471.7,103.6,468.4,100.9z M405.5,543c3.8,3.6,4,3.6,5.2-1.3c0.5-2.1,0.8-4.2,1.1-6.3
			c2.5-17.2,4.8-34.5,7.4-51.7c0.5-3.6-0.1-6-3.6-7.3c-9.4-6.9-18.8-13.8-28.1-20.7c-2-1.5-2.7-1.3-3.1,1.3c-1,7.9-2,15.8-3.3,23.6
			c-2.2,12.7-2.2,25.8-6.9,38c-0.6,1.5,0.2,2.1,1.2,2.7C385.4,528.6,395.5,535.8,405.5,543z M506.9,186.4
			c-7.2-6.1-14.9-11.3-22.7-16.5c-1.8-1.2-3.9-2.9-5.7-1.8c-1.7,0.9-1.1,3.6-1.1,5.5c-0.1,17.8,0,35.6,0,53.3
			c0,6.8,0.5,13.7-1.3,20.4c-0.3,1.3-0.1,2.2,1,2.9c9.7,6.9,19.4,13.9,29.1,20.8c1.1,1.5,2.6,2.5,4.8,3.4c0.2-3.2,0.5-6.1,0.5-9
			c0-19.4-0.1-38.8-0.2-58.3c0-4.4,0-8.8-0.3-13.2C510.8,190.9,509.7,188.2,506.9,186.4z M228.1,468.4c-9.2-5.6-18.5-11.1-27.7-16.9
			c-2.8-1.8-3.7-1.3-4.1,1.9c-1.7,13.2-3.5,26.5-5.6,39.7c-1.8,11.6-1.5,23.7-10.3,33.5c11.9,6.8,23.5,13.5,35.1,20.1
			c2.6,2.9,4.3,1.9,5.3-1.3c0.8-2.7,1.8-5.4,2.2-8.2c3-20.7,5.8-41.5,8.8-62.2C232.4,471.3,231.6,469.3,228.1,468.4z M454.2,350.1
			c0,1.4-0.1,2.7-0.1,4.1c1,0.4,0.5,1.2,0.5,1.8c0,18.9,0,37.7,0,56.6c0,0.7,0.7,1.7-0.6,2.1c-0.1,6.1-0.4,12.2-3.4,17.8
			c-0.9,1.7,0,2.6,1.3,3.5c9.9,7.1,19.8,14.2,29.7,21.4c3.8,3.3,4.2,3.2,5.6-1.5c0.8-2.6,0.9-5.3,0.9-8c0-10.8,0-21.6,0-32.3
			c0-13.3,0.1-26.7-0.1-40c-0.1-4.3-0.3-8.9-4.9-11.5c-6.6-4.7-13.1-9.4-19.7-14.1c-2.8-2.5-5.8-4.7-9.5-6.8
			C453.9,345.9,454,348,454.2,350.1z M394.1,552.4c0.1-0.3,0.2-0.7,0.3-1c-9.5-6.9-19-13.8-28.5-20.8c-1.1-0.8-2-0.7-3.2-0.2
			c-4.8,2.1-9.8,2.6-15,2.6c-16.9,0-33.8,0-50.7,0c-1.5,0-3.1-0.5-4.5,0.5c0.2,1.6,1.7,1.9,2.6,2.6c6.8,4.7,13.7,9.2,20.4,14
			c2.3,1.7,4.6,2.4,7.5,2.3c20-0.1,40.1-0.1,60.1-0.1C386.8,552.4,390.5,552.4,394.1,552.4z M103.9,533.9c0.5,1.7,2.1,2.2,3.4,3
			c6.4,4.5,12.9,8.8,19.2,13.4c2.1,1.5,4.1,2.2,6.6,2.1c20.2-0.1,40.4,0,60.6-0.1c1.2,0,2.5,0.5,3.6-0.5c-0.2-0.3-0.2-0.7-0.4-0.8
			c-9.9-5.8-19.8-11.7-29.8-17.5c-1-0.6-2.1-0.8-3.3-0.7c-18.9,0.1-37.8,0.1-56.7,0.2C106,533.1,104.7,532.7,103.9,533.9z
			 M429.5,265.9c6.7,4.8,12.9,8.7,18.3,13.4c5.6,4.7,11.5,6.4,18.8,5.9c8.9-0.5,17.9-0.2,26.8,0c2.2,0.1,4.5-0.7,5.2-1.9
			c0.9-1.7-1.7-2.5-3-3.4c-8.3-6.2-16.8-12.2-25.1-18.4c-1.6-1.2-2.7-1.4-4.5-0.2c-3.3,2.3-7.1,3.3-11.2,3.9
			C446.9,266.3,438.8,265.3,429.5,265.9z M467.4,464.6c0.1-0.3,0.2-0.6,0.3-0.9c-9-6.6-18.1-13.2-27.1-19.8c-1-0.7-2.1-0.9-3.2-0.5
			c-7.2,2.5-14.6,1.7-22,1.8c-6.2,0.1-12.3,0-19,0c0.6,0.9,0.7,1.3,1,1.5c7.5,5.5,15.1,11.1,22.7,16.6c0.9,0.7,1.8,1.3,3.1,1.3
			C438,464.6,452.7,464.6,467.4,464.6z M217.1,445.3c-0.1,0.3-0.2,0.6-0.2,0.9c9.9,6,19.7,12.2,29.7,18.1c2.8,1.7,8.5,0.4,8.9-1.6
			c0.8-4.9,1.4-9.8,2-14.7c0.3-1.8-0.4-2.6-2.3-2.6C242.5,445.3,229.8,445.3,217.1,445.3z"/>
		<path class="st2" d="M61.9,153.8c3.3-4,7.9-4.2,12.4-4.2c15.5-0.1,31-0.2,46.5,0c3.4,0,4.6-0.8,5.1-4.3
			c2.8-21.4,5.8-42.8,8.7-64.2c0.2-1.5,0.5-3.1,0.9-4.6c1.9-8.2,5.1-11.3,13.5-11.4c24.3-0.2,48.6-0.3,72.9,0
			c12.7,0.2,17.6,6.3,16,19c-2.6,20.1-5.4,40.3-8.4,60.4c-0.5,3.7-0.1,5.1,4.2,5.1c24.7-0.2,49.5-0.1,74.2-0.1
			c6.8,0,5.8,0.6,6.7-5.7c2.9-21.3,5.8-42.5,8.8-63.8c0.5-3.4,1-6.8,3-9.7c0.2-0.4,0.5-0.7,0.7-1.1c0.5-0.1,0.8-0.3,0.8-0.9l0.2,0.1
			c0,0-0.1-0.2-0.1-0.2c0.6,0,0.8-0.3,0.9-0.8c0.4-0.2,0.7-0.5,1.1-0.7c0.1-0.2,0.2-0.2,0.4-0.2c0.9,0.2,1.6,0.1,2-0.8c0,0,0,0,0,0
			c22.9,0,45.8,0.1,68.7,0c7,0,13.9-0.3,20.5,2.3c0,0,0.1,0.1,0.1,0.1c-0.1,0.9,0.5,1.2,1.3,1.2c0,0,0,0,0,0c0,0.8,0.3,1.3,1,1.6
			c0,0,0,0,0,0c-0.2,1.1-0.1,2,0.9,2.7c0.2,0.2,0.3,0.4,0.2,0.7c-1.6,4.6-1,9.3-1.1,14.1c0.1,0.2,0.1,0.4-0.1,0.6
			c-0.8,0.6-0.9,1.4-1,2.3c-2.2,15.9-4.5,31.8-6.6,47.7c-0.4,3.2-2.1,6.5-0.3,9.9c0,0,0.1,0.1,0.1,0.1c0.7,2,2,0.4,3,0.5
			c1.3,0,2.6,0,3.9,0c2.6,2.2,5.7,0.6,8.4,0.6c4.6,0,9.4,1.6,13.9-0.6c0.4,0,0.9,0,1.3,0c3,0.3,5.9,1.5,9,0.9c0,0,0,0,0,0
			c0.5,0.9,1.2,1,2.1,0.7c0,0,0.3,0.2,0.3,0.2c0.3,0.5,0.7,0.8,1.3,0.7c0.2,0,0.3,0.1,0.3,0.3c0.3,0.3,0.6,0.6,1,0.8c0,0,0,0,0,0
			c0,0.8,0.2,1.4,1.1,1.4c0,0,0.1,0.1,0,0.1c-0.3,0.8-0.2,1.5,0.8,1.6c0,0,0,0.1,0,0.1c-1,2.4,0.9,4.6,0.6,6.9c0,26.7,0,53.4,0,80
			c-0.9,5.4-3.5,7.9-9.2,8.9c-4.5,0.8-9.1,0.6-13.6,0.6c-11.8,0-23.6,0.1-35.4-0.1c-3.1,0-4.4,0.7-4.9,4c-3.1,22.7-6.3,45.3-9.8,68
			c-0.6,4,0.6,4.4,4,4.3c9.8-0.2,19.6-0.1,29.4-0.1c2,0,4,0,6,0.3c6.9,1.1,9.6,3.8,10.7,10.7c0.4,2.4,0.5,4.8,0.5,7.2
			c0,22.5,0,44.9,0,67.4c0,0.4,0,0.9,0,1.3c-0.1,12.3-4.1,16.3-16.5,16.4c-15.2,0.1-30.4,0.1-45.7,0c-2.9,0-4.2,0.5-4.6,3.8
			c-3,22.7-6.3,45.3-9.4,68c-0.2,1.5-0.5,3.1-0.9,4.6c-1.9,8.3-5.4,11.4-14,11.5c-24,0.1-48.1,0.1-72.1,0c-2.9,0-5.7-0.3-8.3-1.6
			c-6-3-7.8-6.8-6.8-14.5c2-14.5,4.1-29,6.1-43.5c1.2-8.3,2.2-16.6,3.6-24.9c0.5-2.9-0.6-3.3-3.1-3.3c-26.6,0.1-53.2,0.1-79.8,0
			c-2.8,0-3.6,0.9-4,3.5c-3.1,22.7-6.3,45.3-9.5,68c-0.2,1.4-0.5,2.8-0.8,4.2c-1.9,9-5.4,12.1-14.7,12.1c-23.9,0.1-47.8,0.1-71.7,0
			c-11.8-0.1-16.4-5.8-14.7-17.4c3.3-23.4,6.5-46.7,9.7-70.1c-0.7-1.6-2.1-1.2-3.3-1.2c-8.4,0-16.7,0-25.1,0c-1.1,0-2.3-0.2-3.1,0.9
			c-2.3-0.1-4.6,0.1-6.8-0.2c-6.3-1-9.2-4-10.2-10.3c-0.3-2.2-0.4-4.5-0.4-6.8c0-22.9,0-45.8,0-68.7c0-1.8,0.1-3.7,0.3-5.5
			c0.9-6.9,3.9-10.2,10.8-11.1c8.3-1.2,16.8-0.3,25.1-0.5c8.2-0.2,16.5-0.1,24.7,0c2.3,0,3.2-0.6,3.5-3c3.2-23.1,6.6-46.2,10-69.2
			c0.5-3.4-0.6-4-3.7-4c-10.5,0.2-21,0.2-31.6,0c-4.5-0.1-9.2,0-12.5-4c-0.3-0.3-0.5-0.7-0.8-1c0,0,0,0,0,0c0-1.7-0.4-3.1-1.7-4.3
			c-0.2-0.2-0.3-0.4-0.1-0.6c1.4-2.5,0-5,0-7.4c0.1-25.2,0-50.5,0-75.7c0,0-0.1,0.1-0.1,0.1C61.2,158.3,61.3,156,61.9,153.8z
			 M255.4,252.8c-13.2,0-26.5,0.1-39.7-0.1c-2.9,0-3.9,0.9-4.2,3.7c-3.2,23.1-6.5,46.2-9.9,69.2c-0.4,2.9,0.4,3.3,2.9,3.3
			c26.7-0.1,53.5-0.1,80.2-0.1c2.2,0,3.2-0.4,3.5-2.9c3.2-23.2,6.6-46.4,10-69.6c0.4-2.9-0.4-3.6-3.2-3.6
			C281.9,252.9,268.6,252.8,255.4,252.8z"/>
		<path class="st3" d="M481.5,457.3c-9.9-7.1-19.8-14.2-29.7-21.4c-1.2-0.9-2.2-1.8-1.3-3.5c3-5.6,3.3-11.7,3.4-17.8
			c-0.1,0.1-0.2,0.1-0.4,0.1c0-0.1,0-0.3,0-0.4c-0.6-19.8-0.5-39.7,0-59.5c0-0.1-0.4-1,0.5-0.7c0-1.4,0.1-2.7,0.1-4.1
			c3-0.1,6-0.1,9.1-0.2c6.6,4.7,13.1,9.4,19.7,14.1c0.3,3.2,0.8,6.5,0.8,9.7c0.1,23.8,0,47.7,0,71.5
			C483.7,449.4,483.2,453.4,481.5,457.3z"/>
		<path class="st4" d="M215.5,546.7c-11.6-6.6-23.1-13.3-35.1-20.1c8.8-9.8,8.5-22,10.3-33.5c2-13.2,3.8-26.4,5.6-39.7
			c0.4-3.2,1.3-3.7,4.1-1.9c9.1,5.7,18.4,11.3,27.7,16.9c-2.7,19.6-5.4,39.3-8.2,58.9C218.9,533.9,218.7,540.6,215.5,546.7z"/>
		<path class="st5" d="M506.2,271c-9.7-6.9-19.4-13.9-29.1-20.8c-1.1-0.8-1.4-1.7-1-2.9c1.8-6.7,1.3-13.6,1.3-20.4
			c0-17.8,0-35.6,0-53.3c0-1.9-0.7-4.6,1.1-5.5c1.9-1,4,0.7,5.7,1.8c7.8,5.2,15.5,10.5,22.7,16.5c0.1,2.1,0.3,4.2,0.3,6.4
			c0,22.6,0,45.1,0,67.7C507.2,264,507.2,267.5,506.2,271z"/>
		<path class="st4" d="M405.5,543c-10-7.2-20.1-14.4-30.1-21.6c-0.9-0.7-1.7-1.2-1.2-2.7c4.7-12.2,4.7-25.3,6.9-38
			c1.3-7.8,2.4-15.7,3.3-23.6c0.3-2.6,1-2.8,3.1-1.3c9.3,7,18.7,13.8,28.1,20.7c-1.9,13.4-3.5,26.8-5.6,40.1
			C408.6,525.3,408.4,534.4,405.5,543z"/>
		<path class="st6" d="M394.1,552.4c-3.7,0-7.3,0-11,0c-20,0-40.1,0-60.1,0.1c-2.8,0-5.2-0.7-7.5-2.3c-6.7-4.8-13.6-9.3-20.4-14
			c-1-0.7-2.4-1-2.6-2.6c1.4-1,3-0.5,4.5-0.5c16.9,0,33.8,0,50.7,0c5.2,0,10.2-0.5,15-2.6c1.1-0.5,2.1-0.6,3.2,0.2
			c9.5,7,19,13.9,28.5,20.8C394.4,551.8,394.3,552.1,394.1,552.4z"/>
		<path class="st4" d="M463.2,138.7c-9.3-3.2-19-2.6-28.6-2.5c-2.9,0-3.9-0.4-3.4-3.7c2.3-15.6,4.3-31.2,6.4-46.7
			c0.6-4.7,1.8-5.4,5.5-2.8c8.5,5.9,17.4,11.1,25.3,17.9C467.1,113.5,465.5,126.2,463.2,138.7z"/>
		<path class="st4" d="M277,136.1c-10.1,0-20.2,0-30.2,0.2c-2.2,0-2.9-0.5-2.6-2.9c2.3-16,4.4-32,6.6-48.1c0.5-3.7,1.5-4.1,4.6-1.8
			c7.1,5.2,14.5,10,21.7,15c1.6,1.1,3.4,2.1,4.2,4.1C279.9,113.8,278.5,124.9,277,136.1z"/>
		<path class="st6" d="M103.9,533.9c0.8-1.2,2.1-0.8,3.1-0.8c18.9-0.1,37.8-0.1,56.7-0.2c1.2,0,2.2,0.1,3.3,0.7
			c9.9,5.8,19.8,11.7,29.8,17.5c0.2,0.1,0.3,0.5,0.4,0.8c-1.1,1-2.4,0.5-3.6,0.5c-20.2,0-40.4,0-60.6,0.1c-2.5,0-4.5-0.6-6.6-2.1
			c-6.3-4.6-12.8-9-19.2-13.4C106,536.1,104.4,535.6,103.9,533.9z"/>
		<path class="st7" d="M438.2,317.7c-8.9-2.7-18-1.6-27.1-1.8c-6.2-0.1-6.2,0-5.3-6c1.7-12.4,3.5-24.7,5.2-37.1
			c0.3-2.1,0.4-3.9,3.1-1.9c9.2,6.8,18.5,13.6,27.8,20.3C440.7,300.1,439.4,308.9,438.2,317.7z"/>
		<path class="st8" d="M429.5,265.9c9.3-0.6,17.4,0.4,25.5-0.8c4-0.6,7.8-1.6,11.2-3.9c1.8-1.2,2.9-0.9,4.5,0.2
			c8.3,6.2,16.8,12.2,25.1,18.4c1.3,0.9,3.9,1.7,3,3.4c-0.7,1.3-3,2-5.2,1.9c-8.9-0.2-17.9-0.5-26.8,0c-7.2,0.4-13.2-1.2-18.8-5.9
			C442.3,274.6,436.2,270.8,429.5,265.9z"/>
		<path class="st6" d="M467.4,464.6c-14.7,0-29.4,0-44.2,0c-1.2,0-2.2-0.6-3.1-1.3c-7.6-5.5-15.1-11-22.7-16.6
			c-0.3-0.2-0.4-0.6-1-1.5c6.6,0,12.8,0.1,19,0c7.4-0.1,14.8,0.7,22-1.8c1.1-0.4,2.2-0.3,3.2,0.5c9,6.6,18.1,13.2,27.1,19.8
			C467.6,464,467.5,464.3,467.4,464.6z"/>
		<path class="st8" d="M217.1,445.3c12.7,0,25.4,0,38.1,0c1.9,0,2.5,0.8,2.3,2.6c-0.7,4.9-1.3,9.8-2,14.7c-0.3,2.1-6,3.3-8.9,1.6
			c-10-5.9-19.8-12-29.7-18.1C216.9,445.9,217,445.6,217.1,445.3z"/>
		<path class="st9" d="M481.5,457.3c1.7-3.8,2.2-7.9,2.2-12c0-23.8,0-47.7,0-71.5c0-3.2-0.5-6.5-0.8-9.7c4.6,2.6,4.8,7.2,4.9,11.5
			c0.2,13.3,0.1,26.7,0.1,40c0,10.8,0,21.6,0,32.3c0,2.7-0.1,5.4-0.9,8C485.7,460.4,485.3,460.6,481.5,457.3z"/>
		<path class="st10" d="M215.5,546.7c3.2-6.1,3.4-12.8,4.3-19.4c2.8-19.6,5.5-39.3,8.2-58.9c3.5,0.9,4.3,2.9,3.8,6.6
			c-3.1,20.7-5.9,41.5-8.8,62.2c-0.4,2.8-1.3,5.5-2.2,8.2C219.8,548.6,218.1,549.6,215.5,546.7z"/>
		<path class="st9" d="M506.2,271c1-3.5,1-7,1-10.5c0-22.6,0-45.1,0-67.7c0-2.1-0.2-4.2-0.3-6.4c2.8,1.7,3.9,4.5,4.1,7.5
			c0.2,4.4,0.2,8.8,0.3,13.2c0.1,19.4,0.1,38.8,0.2,58.3c0,2.9-0.3,5.8-0.5,9C508.8,273.5,507.3,272.5,506.2,271z"/>
		<path class="st9" d="M405.5,543c2.9-8.6,3.1-17.6,4.5-26.4c2.1-13.3,3.8-26.7,5.6-40.1c3.6,1.2,4.2,3.6,3.7,7.3
			c-2.6,17.2-4.9,34.5-7.4,51.7c-0.3,2.1-0.6,4.2-1.1,6.3C409.6,546.5,409.3,546.5,405.5,543z"/>
		<path class="st9" d="M463.2,138.7c2.3-12.5,3.8-25.2,5.2-37.8c3.3,2.8,4.5,6.5,4,10.6c-1.3,10-2.7,19.9-4.1,30.6
			C466.3,140.8,464.8,139.7,463.2,138.7z"/>
		<path class="st11" d="M421.6,68.2c-6.6-2.6-13.6-2.3-20.5-2.3c-22.9,0-45.8,0-68.7,0c4.2-1.9,8.6-1.3,13-1.3
			c20.9-0.1,41.8-0.1,62.6,0C412.7,64.6,417.7,64.6,421.6,68.2z"/>
		<path class="st9" d="M438.2,317.7c1.3-8.8,2.5-17.6,3.8-26.4c3.7,1.2,4.7,3.6,4,7.5c-1.3,6.9-2.2,13.9-3.3,21.3
			C440.9,319.1,439.5,318.4,438.2,317.7z"/>
		<path class="st10" d="M277,136.1c1.4-11.2,2.9-22.4,4.3-33.6c2.3,3,2.8,6.5,2.3,10c-0.9,7-2,14-2.8,20.9
			C280.5,136.2,279.5,137,277,136.1z"/>
		<path class="st11" d="M416,148.9c-1.7-3.3-0.1-6.6,0.3-9.9c2.1-15.9,4.4-31.8,6.6-47.7c0.1-0.8,0.2-1.7,1-2.3
			c-0.9,12.2-3.2,24.2-4.7,36.2C418.3,133.2,417.1,141,416,148.9z"/>
		<path class="st12" d="M59.3,159.8c0,25.2,0.1,50.5,0,75.7c0,2.5,1.4,5,0,7.4c-1.1-2.1-0.8-4.4-0.9-6.7c0-23.6,0-47.1,0-70.7
			C58.4,163.6,58.1,161.6,59.3,159.8z"/>
		<path class="st12" d="M463.2,243.2c0-26.7,0-53.4,0-80c0.3,0.1,0.5,0.1,0.8,0.1c0.1,0.2,0.1,0.5,0,0.7c0,25.1,0,50.2,0,75.3
			C463.9,240.7,464.2,242.1,463.2,243.2z"/>
		<path class="st11" d="M464,239.3c0-25.1,0-50.2,0-75.3c0.1,1,0.4,1.9,0.4,2.9c0,23,0,46,0,69C464.4,237.1,464.1,238.2,464,239.3z"
			/>
		<path class="st10" d="M454.1,354.2c-0.9-0.4-0.5,0.5-0.5,0.7c-0.5,19.8-0.6,39.7,0,59.5c0,0.1,0,0.3,0,0.4c0.1,0,0.2-0.1,0.4-0.1
			c1.2-0.4,0.5-1.4,0.5-2.1c0-18.9,0-37.7,0-56.6C454.5,355.3,455.1,354.5,454.1,354.2z"/>
		<path class="st10" d="M463.2,349.9c-3,0.1-6,0.1-9.1,0.2c-0.1-2.1-0.3-4.2-0.5-7C457.4,345.2,460.4,347.4,463.2,349.9z"/>
		<path class="st11" d="M445.2,149.4c-4.5,2.3-9.3,0.6-13.9,0.6c-2.7,0-5.8,1.5-8.4-0.6C430.3,148.8,437.8,148.8,445.2,149.4z"/>
		<path class="st12" d="M52.5,432.2c0.8-1.1,2-0.9,3.1-0.9c8.4,0,16.7,0,25.1,0c1.2,0,2.6-0.4,3.3,1.2
			C73.5,432.4,63,432.3,52.5,432.2z"/>
		<path class="st11" d="M424,88.5c0.1-4.7-0.5-9.5,1.1-14.1C426.2,79.2,425,83.8,424,88.5z"/>
		<path class="st11" d="M455.5,150.4c-3.1,0.6-6-0.6-9-0.9C449.6,148.8,452.6,149.2,455.5,150.4z"/>
		<path class="st11" d="M464,163.3c-0.3,0-0.5-0.1-0.8-0.1c0.4-2.4-1.5-4.5-0.6-6.9C464,158.4,464.2,160.8,464,163.3z"/>
		<path class="st12" d="M61.9,153.8c-0.5,2.2-0.7,4.6-2.7,6.1C59.2,157.5,60,155.4,61.9,153.8z"/>
		<path class="st12" d="M59.4,243.5c1.3,1.1,1.7,2.6,1.7,4.3C59.8,246.6,59.3,245.2,59.4,243.5z"/>
		<path class="st11" d="M419,149.5c-1,0-2.3,1.5-3-0.5C417,149.2,418,149.3,419,149.5z"/>
		<path class="st11" d="M424.9,73.7c-1.1-0.6-1.1-1.6-0.9-2.7C424.8,71.7,424.9,72.7,424.9,73.7z"/>
		<path class="st11" d="M422.9,69.5c-0.8-0.1-1.4-0.3-1.3-1.2C422.3,68.4,422.8,68.7,422.9,69.5z"/>
		<path class="st11" d="M462.6,156.2c-1.1-0.1-1.1-0.8-0.8-1.6C462,155.1,462.3,155.6,462.6,156.2z"/>
		<path class="st11" d="M461.7,154.5c-1,0-1.1-0.7-1.1-1.4C461.3,153.2,461.6,153.8,461.7,154.5z"/>
		<path class="st11" d="M457.6,151c-0.9,0.3-1.6,0.2-2.1-0.7C456.3,150.2,457,150.4,457.6,151z"/>
		<path class="st11" d="M332.4,65.8c-0.4,0.9-1.2,1-2,0.8C330.9,65.9,331.6,65.7,332.4,65.8z"/>
		<path class="st11" d="M423.9,71.1c-0.7-0.3-1-0.9-1-1.6C423.6,69.8,424,70.3,423.9,71.1z"/>
		<path class="st11" d="M327.9,68.3c0,0.6-0.2,0.8-0.8,0.9C327.4,68.9,327.7,68.6,327.9,68.3z"/>
		<path class="st12" d="M61.1,247.8c0.3,0.3,0.5,0.7,0.8,1C61.6,248.5,61.3,248.1,61.1,247.8z"/>
		<path class="st11" d="M328.8,67.5c0,0.5-0.3,0.8-0.9,0.8C328.3,68,328.5,67.7,328.8,67.5z"/>
		<path class="st11" d="M460.6,153c-0.3-0.3-0.6-0.6-1-0.8C459.9,152.5,460.3,152.8,460.6,153z"/>
		<path class="st11" d="M329.9,66.8c-0.4,0.2-0.7,0.5-1.1,0.7C329.2,67.2,329.6,67,329.9,66.8z"/>
		<path class="st11" d="M459.3,151.9c-0.6,0.1-1.1-0.2-1.3-0.7C458.4,151.5,458.8,151.7,459.3,151.9z"/>
		<path class="st11" d="M327.1,69.2c-0.2,0.4-0.5,0.7-0.7,1.1C326.6,69.9,326.9,69.6,327.1,69.2z"/>
		<path class="st13" d="M255.4,252.8c13.2,0,26.5,0.1,39.7-0.1c2.8,0,3.7,0.6,3.2,3.6c-3.4,23.2-6.8,46.4-10,69.6
			c-0.3,2.5-1.3,2.9-3.5,2.9c-26.7,0-53.5,0-80.2,0.1c-2.6,0-3.4-0.4-2.9-3.3c3.4-23.1,6.7-46.1,9.9-69.2c0.4-2.8,1.3-3.7,4.2-3.7
			C229,252.9,242.2,252.8,255.4,252.8z M249.8,315.8c3.6,1,5.4,0,5.7-4.1c0.3-5.1,1-10.1,2.1-15.1c1-4.1-0.4-6.1-4.2-7
			c-9.4-5.8-18.9-11.5-28.3-17.3c-2-1.2-2.6-0.6-2.9,1.5c-1.8,13-3.7,26.1-5.7,39.1c-0.3,2.2,0.3,3,2.6,3
			C229.4,315.9,239.6,315.9,249.8,315.8z M241.2,265.8c-0.1,0.3-0.2,0.6-0.3,0.9c8.9,5.3,17.8,10.5,26.5,16.1
			c3.5,2.2,7,2.6,10.9,2.5c1.9-0.1,2.8-0.7,3-2.7c0.5-4.7,1.1-9.3,2-13.9c0.5-2.5-0.4-2.9-2.6-2.9
			C267.6,265.8,254.4,265.8,241.2,265.8z M274.8,298.2c-3.6-1-5,0.6-5.1,4.3c-0.1,3.4-1,6.7-1.3,10.1c-0.1,1.2-1.7,3.7,1.2,3.3
			c2.5-0.4,6.4,2.4,7.3-2.4c0.7-3.8,1-7.6,1.7-11.3C279.3,298.8,278.4,297.4,274.8,298.2z"/>
		<path class="st7" d="M249.8,315.8c-10.2,0.1-20.4,0.1-30.6,0.2c-2.3,0-3-0.8-2.6-3c2-13,3.9-26.1,5.7-39.1
			c0.3-2.1,0.9-2.8,2.9-1.5c9.4,5.8,18.8,11.5,28.3,17.3C252.2,298.4,251,307.1,249.8,315.8z"/>
		<path class="st8" d="M241.2,265.8c13.2,0,26.4,0,39.6,0c2.1,0,3.1,0.4,2.6,2.9c-0.9,4.6-1.5,9.3-2,13.9c-0.2,2-1.1,2.6-3,2.7
			c-3.9,0.1-7.4-0.3-10.9-2.5c-8.7-5.6-17.7-10.7-26.5-16.1C241,266.4,241.1,266.1,241.2,265.8z"/>
		<path class="st10" d="M249.8,315.8c1.2-8.7,2.4-17.4,3.6-26.2c3.8,0.9,5.1,2.9,4.2,7c-1.2,4.9-1.8,10-2.1,15.1
			C255.2,315.8,253.4,316.8,249.8,315.8z"/>
	</g>
</g>
<g>
	<path d="M1594.8,455.4V439c0-9.4,2.6-15.6,12.5-15.6c8.7,0,11.7,5,11.7,13.4v3.7h-6.1v-3.3c0-5.2-0.1-8.7-5.5-8.7
		c-5.5,0-6,3.8-6,9.5v18.4c0,7,1.5,9.3,6,9.3c5.2,0,5.5-3.7,5.5-9.2v-3.4h6.1v3.4c0,8.6-2.6,14.4-11.7,14.4
		C1597.4,470.9,1594.8,464.1,1594.8,455.4z"/>
	<path d="M1624.4,455.8v-17.6c0-9.2,3.3-14.7,12.7-14.7c9.4,0,12.7,5.6,12.7,14.7v17.7c0,9.1-3.3,15-12.7,15
		C1627.6,470.9,1624.4,465,1624.4,455.8z M1643.2,457.2v-20.4c0-5.2-1-8.3-6.1-8.3c-5.2,0-6.2,3.2-6.2,8.3v20.4c0,5.2,1,8.6,6.2,8.6
		C1642.3,465.8,1643.2,462.4,1643.2,457.2z"/>
	<path d="M1656.5,423.9h6.4v46.5h-6.4V423.9z"/>
	<path d="M1670.4,423.9h4.4l13.2,30.9v-30.9h5.4v46.5h-4.1l-13.4-31.7v31.7h-5.5V423.9z"/>
</g>
</svg>
